<mxfile host="Electron" modified="2023-11-26T17:40:38.208Z" agent="Mozilla/5.0 (Windows NT 10.0; Win64; x64) AppleWebKit/537.36 (KHTML, like Gecko) draw.io/21.6.8 Chrome/114.0.5735.289 Electron/25.5.0 Safari/537.36" etag="CzeuIa6DGaqzdhj8HXg9" version="21.6.8" type="device">
  <diagram id="C5RBs43oDa-KdzZeNtuy" name="Page-1">
    <mxGraphModel dx="649" dy="2829" grid="1" gridSize="10" guides="1" tooltips="1" connect="1" arrows="1" fold="1" page="1" pageScale="1" pageWidth="827" pageHeight="1169" math="0" shadow="0">
      <root>
        <mxCell id="WIyWlLk6GJQsqaUBKTNV-0" />
        <mxCell id="WIyWlLk6GJQsqaUBKTNV-1" parent="WIyWlLk6GJQsqaUBKTNV-0" />
        <mxCell id="IEeFdyCGopTc3gh3-DFE-2" value="SubstanceDefinition&lt;br&gt;&lt;i&gt;R-enantiomer of Stelbatolol, chiral impurity&lt;/i&gt;" style="rounded=1;whiteSpace=wrap;html=1;fontSize=12;glass=0;strokeWidth=1;shadow=0;fillColor=#c1f0da;strokeColor=#9ebda2;" parent="WIyWlLk6GJQsqaUBKTNV-1" vertex="1">
          <mxGeometry x="310" y="-2243.5" width="166.5" height="50" as="geometry" />
        </mxCell>
        <mxCell id="LmnFCDHnn4zj9XMJaAnK-1" value="DocumentReference&lt;br&gt;&lt;i&gt;diagram&lt;/i&gt;" style="rounded=1;whiteSpace=wrap;html=1;fontSize=12;glass=0;strokeWidth=1;shadow=0;fillColor=#cfcfcf;strokeColor=#82b366;" parent="WIyWlLk6GJQsqaUBKTNV-1" vertex="1">
          <mxGeometry x="545" y="-2242" width="127" height="43" as="geometry" />
        </mxCell>
        <mxCell id="kpz4Sfpt5wFFiJONWYMM-8" value="" style="endArrow=classic;html=1;rounded=0;exitX=1;exitY=0.25;exitDx=0;exitDy=0;entryX=0;entryY=0.5;entryDx=0;entryDy=0;" parent="WIyWlLk6GJQsqaUBKTNV-1" source="w3OQjrGyNfMUQHKarbBH-0" target="IEeFdyCGopTc3gh3-DFE-2" edge="1">
          <mxGeometry width="50" height="50" relative="1" as="geometry">
            <mxPoint x="179.5" y="-2210" as="sourcePoint" />
            <mxPoint x="271.5" y="-2297" as="targetPoint" />
          </mxGeometry>
        </mxCell>
        <mxCell id="kpz4Sfpt5wFFiJONWYMM-9" value="impurity" style="edgeLabel;html=1;align=center;verticalAlign=middle;resizable=0;points=[];" parent="kpz4Sfpt5wFFiJONWYMM-8" vertex="1" connectable="0">
          <mxGeometry x="-0.4009" y="1" relative="1" as="geometry">
            <mxPoint x="9" y="-20" as="offset" />
          </mxGeometry>
        </mxCell>
        <mxCell id="kpz4Sfpt5wFFiJONWYMM-10" value="" style="endArrow=classic;html=1;rounded=0;exitX=1;exitY=0.75;exitDx=0;exitDy=0;entryX=0;entryY=0.5;entryDx=0;entryDy=0;" parent="WIyWlLk6GJQsqaUBKTNV-1" source="w3OQjrGyNfMUQHKarbBH-0" target="w3OQjrGyNfMUQHKarbBH-1" edge="1">
          <mxGeometry width="50" height="50" relative="1" as="geometry">
            <mxPoint x="179.5" y="-2210" as="sourcePoint" />
            <mxPoint x="273.5" y="-2210" as="targetPoint" />
          </mxGeometry>
        </mxCell>
        <mxCell id="kpz4Sfpt5wFFiJONWYMM-11" value="impurity" style="edgeLabel;html=1;align=center;verticalAlign=middle;resizable=0;points=[];" parent="kpz4Sfpt5wFFiJONWYMM-10" vertex="1" connectable="0">
          <mxGeometry x="-0.4009" y="1" relative="1" as="geometry">
            <mxPoint x="9" y="18" as="offset" />
          </mxGeometry>
        </mxCell>
        <mxCell id="w3OQjrGyNfMUQHKarbBH-0" value="SubstanceDefinition&lt;br&gt;&lt;i&gt;Stelbatolol&lt;/i&gt;" style="rounded=1;whiteSpace=wrap;html=1;fontSize=12;glass=0;strokeWidth=1;shadow=0;fillColor=#c1f0da;strokeColor=#9ebda2;" vertex="1" parent="WIyWlLk6GJQsqaUBKTNV-1">
          <mxGeometry x="90" y="-2199" width="150" height="40" as="geometry" />
        </mxCell>
        <mxCell id="w3OQjrGyNfMUQHKarbBH-1" value="SubstanceDefinition&lt;br&gt;&lt;i&gt;Î²-naphthol, starting material&lt;/i&gt;" style="rounded=1;whiteSpace=wrap;html=1;fontSize=12;glass=0;strokeWidth=1;shadow=0;fillColor=#c1f0da;strokeColor=#9ebda2;" vertex="1" parent="WIyWlLk6GJQsqaUBKTNV-1">
          <mxGeometry x="310" y="-2170" width="170" height="50" as="geometry" />
        </mxCell>
        <mxCell id="w3OQjrGyNfMUQHKarbBH-3" value="" style="endArrow=classic;html=1;rounded=0;entryX=0;entryY=0.535;entryDx=0;entryDy=0;entryPerimeter=0;exitX=1;exitY=0.5;exitDx=0;exitDy=0;" edge="1" parent="WIyWlLk6GJQsqaUBKTNV-1" source="IEeFdyCGopTc3gh3-DFE-2" target="LmnFCDHnn4zj9XMJaAnK-1">
          <mxGeometry width="50" height="50" relative="1" as="geometry">
            <mxPoint x="480" y="-2210" as="sourcePoint" />
            <mxPoint x="520" y="-2260" as="targetPoint" />
          </mxGeometry>
        </mxCell>
        <mxCell id="w3OQjrGyNfMUQHKarbBH-4" value="structure" style="edgeLabel;html=1;align=center;verticalAlign=middle;resizable=0;points=[];" vertex="1" connectable="0" parent="w3OQjrGyNfMUQHKarbBH-3">
          <mxGeometry x="-0.4009" y="1" relative="1" as="geometry">
            <mxPoint x="13" y="-10" as="offset" />
          </mxGeometry>
        </mxCell>
        <mxCell id="w3OQjrGyNfMUQHKarbBH-8" value="DocumentReference&lt;br&gt;&lt;i&gt;diagram&lt;/i&gt;" style="rounded=1;whiteSpace=wrap;html=1;fontSize=12;glass=0;strokeWidth=1;shadow=0;fillColor=#cfcfcf;strokeColor=#82b366;" vertex="1" parent="WIyWlLk6GJQsqaUBKTNV-1">
          <mxGeometry x="545" y="-2163" width="127" height="43" as="geometry" />
        </mxCell>
        <mxCell id="w3OQjrGyNfMUQHKarbBH-10" value="" style="endArrow=classic;html=1;rounded=0;entryX=0;entryY=0.535;entryDx=0;entryDy=0;entryPerimeter=0;exitX=1;exitY=0.6;exitDx=0;exitDy=0;exitPerimeter=0;" edge="1" parent="WIyWlLk6GJQsqaUBKTNV-1" source="w3OQjrGyNfMUQHKarbBH-1" target="w3OQjrGyNfMUQHKarbBH-8">
          <mxGeometry width="50" height="50" relative="1" as="geometry">
            <mxPoint x="500" y="-2151" as="sourcePoint" />
            <mxPoint x="555" y="-2209" as="targetPoint" />
          </mxGeometry>
        </mxCell>
        <mxCell id="w3OQjrGyNfMUQHKarbBH-11" value="structure" style="edgeLabel;html=1;align=center;verticalAlign=middle;resizable=0;points=[];" vertex="1" connectable="0" parent="w3OQjrGyNfMUQHKarbBH-10">
          <mxGeometry x="-0.4009" y="1" relative="1" as="geometry">
            <mxPoint x="13" y="-10" as="offset" />
          </mxGeometry>
        </mxCell>
      </root>
    </mxGraphModel>
  </diagram>
</mxfile>
